<?xml version="1.0" encoding="utf-8"?>
<!-- Generator: Adobe Illustrator 16.0.0, SVG Export Plug-In . SVG Version: 6.00 Build 0)  -->
<!DOCTYPE svg PUBLIC "-//W3C//DTD SVG 1.1//EN" "http://www.w3.org/Graphics/SVG/1.1/DTD/svg11.dtd">
<svg version="1.1" id="Layer_1" xmlns="http://www.w3.org/2000/svg" xmlns:xlink="http://www.w3.org/1999/xlink" x="0px" y="0px"
	 width="50px" height="50px" viewBox="0 0 50 50" enable-background="new 0 0 50 50" xml:space="preserve">
<g>
	<path d="M7.5,7.5v35h35v-35H7.5z M40.5,40.5h-31v-31h31V40.5z"/>
	<rect x="17.5" y="12.5" width="20" height="2.824"/>
	<rect x="17.5" y="16.938" width="20" height="2.819"/>
	<rect x="17.5" y="21.369" width="20" height="2.824"/>
	<rect x="17.5" y="25.807" width="20" height="2.818"/>
	<rect x="17.5" y="30.239" width="20" height="2.829"/>
	<rect x="17.5" y="34.68" width="20" height="2.82"/>
	<rect x="12.5" y="12.5" width="2.824" height="2.824"/>
	<rect x="12.5" y="16.936" width="2.824" height="2.823"/>
	<rect x="12.5" y="21.37" width="2.824" height="2.823"/>
	<rect x="12.5" y="25.805" width="2.824" height="2.824"/>
	<rect x="12.5" y="30.24" width="2.824" height="2.824"/>
	<rect x="12.5" y="34.676" width="2.824" height="2.824"/>
</g>
</svg>
