<?xml version="1.0" encoding="utf-8"?>
<!-- Generator: Adobe Illustrator 16.0.0, SVG Export Plug-In . SVG Version: 6.00 Build 0)  -->
<!DOCTYPE svg PUBLIC "-//W3C//DTD SVG 1.1//EN" "http://www.w3.org/Graphics/SVG/1.1/DTD/svg11.dtd">
<svg version="1.1" id="Layer_1" xmlns="http://www.w3.org/2000/svg" xmlns:xlink="http://www.w3.org/1999/xlink" x="0px" y="0px"
	 width="50px" height="50px" viewBox="0 0 50 50" enable-background="new 0 0 50 50" xml:space="preserve">
<g>
	<rect x="7.875" y="7.876" width="5.185" height="5.275"/>
	<rect x="15.007" y="7.876" width="5.187" height="5.275"/>
	<rect x="22.141" y="7.876" width="5.185" height="5.275"/>
	<rect x="29.273" y="7.876" width="5.185" height="5.275"/>
	<rect x="36.94" y="7.876" width="5.185" height="5.275"/>
	<rect x="7.875" y="15.12" width="5.185" height="5.274"/>
	<rect x="15.007" y="15.12" width="5.187" height="5.274"/>
	<rect x="22.141" y="15.12" width="5.185" height="5.274"/>
	<rect x="29.273" y="15.12" width="5.185" height="5.274"/>
	<rect x="36.94" y="15.12" width="5.185" height="5.274"/>
	<rect x="7.875" y="22.363" width="5.185" height="5.275"/>
	<rect x="15.007" y="22.363" width="5.187" height="5.275"/>
	<rect x="22.141" y="22.363" width="5.185" height="5.275"/>
	<rect x="29.273" y="22.363" width="5.185" height="5.275"/>
	<rect x="36.94" y="22.363" width="5.185" height="5.275"/>
	<rect x="7.875" y="29.607" width="5.185" height="5.274"/>
	<rect x="15.007" y="29.607" width="5.187" height="5.274"/>
	<rect x="22.141" y="29.607" width="5.185" height="5.274"/>
	<rect x="29.273" y="29.607" width="5.185" height="5.274"/>
	<rect x="36.94" y="29.607" width="5.185" height="5.274"/>
	<rect x="7.875" y="36.851" width="5.185" height="5.275"/>
	<rect x="15.007" y="36.851" width="5.187" height="5.275"/>
	<rect x="22.141" y="36.851" width="5.185" height="5.275"/>
	<rect x="29.273" y="36.851" width="5.185" height="5.275"/>
	<rect x="36.94" y="36.851" width="5.185" height="5.275"/>
</g>
</svg>
