<?xml version="1.0" encoding="utf-8"?>
<!-- Generator: Adobe Illustrator 16.0.0, SVG Export Plug-In . SVG Version: 6.00 Build 0)  -->
<!DOCTYPE svg PUBLIC "-//W3C//DTD SVG 1.1//EN" "http://www.w3.org/Graphics/SVG/1.1/DTD/svg11.dtd">
<svg version="1.1" id="Layer_1" xmlns="http://www.w3.org/2000/svg" xmlns:xlink="http://www.w3.org/1999/xlink" x="0px" y="0px"
	 width="50px" height="50px" viewBox="0 0 50 50" enable-background="new 0 0 50 50" xml:space="preserve">
<g>
	<path d="M7.5,7.5v35h35v-35H7.5z M40.5,9.5v26.666h-31V9.5H40.5z"/>
	<rect x="18.957" y="13.479" width="5.127" height="5.127"/>
	<rect x="18.957" y="20.437" width="5.127" height="5.127"/>
	<rect x="18.957" y="27.395" width="5.127" height="5.127"/>
	<rect x="25.916" y="13.479" width="5.127" height="5.127"/>
	<rect x="25.916" y="20.437" width="5.127" height="5.127"/>
	<rect x="25.916" y="27.395" width="5.127" height="5.127"/>
	<rect x="32.873" y="13.479" width="5.127" height="5.127"/>
	<rect x="32.873" y="20.437" width="5.127" height="5.127"/>
	<rect x="32.873" y="27.395" width="5.127" height="5.127"/>
	<rect x="12" y="13.479" width="5.127" height="5.127"/>
	<rect x="12" y="20.437" width="5.127" height="5.127"/>
	<rect x="12" y="27.395" width="5.127" height="5.127"/>
</g>
</svg>
